<svg xmlns="http://www.w3.org/2000/svg" xmlns:xlink="http://www.w3.org/1999/xlink" width="425.281" height="216.75" viewBox="0 0 425.281 216.75"><defs><filter id="a" x="70.665" y="40.421" width="282.07" height="54.82" filterUnits="userSpaceOnUse"><feOffset dx="-2" dy="4" input="SourceAlpha"/><feGaussianBlur result="b"/><feFlood flood-color="#71320e"/><feComposite operator="in" in2="b"/><feComposite in="SourceGraphic"/></filter><filter id="c" x="102.74" y="102.331" width="217.16" height="83" filterUnits="userSpaceOnUse"><feOffset dx="-2" dy="4" input="SourceAlpha"/><feGaussianBlur result="d"/><feFlood flood-color="#71320e"/><feComposite operator="in" in2="d"/><feComposite in="SourceGraphic"/></filter></defs><g transform="translate(-81 -1085.669)"><g transform="translate(0 516)"><path d="M397.868,591.773a25.416,25.416,0,0,0,25.413,25.413v52.82a25.409,25.409,0,0,0-25.413,25.413H27.413A25.416,25.416,0,0,0,2,670.006v-52.82A25.413,25.413,0,1,0,2,566.36V508.082a25.424,25.424,0,0,0,25.413-25.413H397.868a25.416,25.416,0,0,0,25.413,25.413V566.36a25.409,25.409,0,0,0-25.413,25.413" transform="translate(81 89)" fill="#c46339"/><path d="M397.868,591.773a25.416,25.416,0,0,0,25.413,25.413v52.82a25.409,25.409,0,0,0-25.413,25.413H27.413A25.416,25.416,0,0,0,2,670.006v-52.82A25.413,25.413,0,1,0,2,566.36V508.082a25.424,25.424,0,0,0,25.413-25.413H397.868a25.416,25.416,0,0,0,25.413,25.413V566.36A25.409,25.409,0,0,0,397.868,591.773Z" transform="translate(81 89)" fill="none" stroke="#3d0075" stroke-linecap="round" stroke-linejoin="round" stroke-width="4"/><path d="M43.306,678.782a42.111,42.111,0,0,0-22.05-22.049V630.061a41.849,41.849,0,0,0,0-76.974V520.958a42.113,42.113,0,0,0,22.05-22.05H387.612a42.111,42.111,0,0,0,22.049,22.05v32.129a41.85,41.85,0,0,0,0,76.974v26.672a42.109,42.109,0,0,0-22.049,22.049Z" transform="translate(81 89)" fill="#9c4c19"/><path d="M43.306,678.782a42.111,42.111,0,0,0-22.05-22.049V630.061a41.849,41.849,0,0,0,0-76.974V520.958a42.113,42.113,0,0,0,22.05-22.05H387.612a42.111,42.111,0,0,0,22.049,22.05v32.129a41.85,41.85,0,0,0,0,76.974v26.672a42.109,42.109,0,0,0-22.049,22.049Z" transform="translate(81 89)" fill="none" stroke="#3d0075" stroke-linecap="round" stroke-linejoin="round" stroke-width="2" stroke-dasharray="12 12"/></g><g transform="matrix(1, 0, 0, 1, 81, 1085.67)" filter="url(#a)"><path d="M-113.925,0h-25.41V-49h24.01a16.66,16.66,0,0,1,11.27,3.92,12.28,12.28,0,0,1,4.48,9.73,12.631,12.631,0,0,1-4.41,9.73,13.472,13.472,0,0,1,4.69,4.9,13.14,13.14,0,0,1,1.68,6.51,12.873,12.873,0,0,1-4.69,10.15A17.127,17.127,0,0,1-113.925,0Zm-.14-20.16h-14.14v9.94h14.14a4.689,4.689,0,0,0,3.5-1.435,4.866,4.866,0,0,0,1.4-3.535,4.866,4.866,0,0,0-1.4-3.535A4.689,4.689,0,0,0-114.065-20.16Zm-1.4-18.62h-12.74v8.89h12.74a4.188,4.188,0,0,0,2.87-1.05,4.146,4.146,0,0,0,1.4-2.66,2.047,2.047,0,0,0,.07-.7,4.428,4.428,0,0,0-1.225-3.22A4.158,4.158,0,0,0-115.465-38.78ZM-92.085-49h22.96a17.79,17.79,0,0,1,12.6,4.76,15.214,15.214,0,0,1,5.11,11.69,15.619,15.619,0,0,1-2.38,8.435,16.232,16.232,0,0,1-6.44,5.915L-49.665,0h-12.32l-9.45-16.1h-9.52V0h-11.13Zm22.96,10.22h-11.83v12.46h11.83a5.918,5.918,0,0,0,4.41-1.785,6.1,6.1,0,0,0,1.75-4.445A6.1,6.1,0,0,0-64.715-37,5.918,5.918,0,0,0-69.125-38.78Zm28.84,32.41a24.34,24.34,0,0,1-7.35-18.13,24.34,24.34,0,0,1,7.35-18.13,25.163,25.163,0,0,1,18.34-7.28A25.163,25.163,0,0,1-3.6-42.63,24.224,24.224,0,0,1,3.815-24.5,24.224,24.224,0,0,1-3.6-6.37,25.163,25.163,0,0,1-21.945.91,25.163,25.163,0,0,1-40.285-6.37Zm18.34-3.36a13.68,13.68,0,0,0,10.15-4.2A14.749,14.749,0,0,0-7.735-24.5,14.356,14.356,0,0,0-11.795-35a13.426,13.426,0,0,0-10.15-4.27A13.346,13.346,0,0,0-32.025-35a14.356,14.356,0,0,0-4.06,10.5,14.749,14.749,0,0,0,4.06,10.57A13.453,13.453,0,0,0-21.945-9.73Zm42,9.73H9.345V-49h9.87l23.31,30.03V-49h10.71V0h-9.87L20.055-29.89Zm78.26-10.22V0H58.9V-8.54l23.73-30.24H59.115V-49H98.1v8.54L74.375-10.22ZM103.775-49h36.61v10.22H114.9v8.96h21.42V-19.6H114.9v9.38h25.83V0h-36.96Z" transform="translate(212 90.33)" fill="#fff"/></g><g transform="matrix(1, 0, 0, 1, 81, 1085.67)" filter="url(#c)"><path d="M-92.12-28h21.16v6.72H-84.8v3.8h11.48v6.72H-84.8v4.04h14.04V0H-92.12Zm32,6.72a8.853,8.853,0,0,1,5.16,1.64V-20.8h7V0h-7V-1.16A8.853,8.853,0,0,1-60.12.48a8.768,8.768,0,0,1-6.84-3.12,11.482,11.482,0,0,1-2.72-7.76,11.482,11.482,0,0,1,2.72-7.76A8.768,8.768,0,0,1-60.12-21.28Zm5.08,10.84a3.943,3.943,0,0,0-1.08-2.82,3.453,3.453,0,0,0-2.6-1.14,3.391,3.391,0,0,0-2.58,1.14,3.985,3.985,0,0,0-1.06,2.82A4.129,4.129,0,0,0-61.3-7.58,3.34,3.34,0,0,0-58.72-6.4a3.426,3.426,0,0,0,2.6-1.16A4.065,4.065,0,0,0-55.04-10.44ZM-38.48-20.8v1.76a6.6,6.6,0,0,1,5.16-2.24,3.547,3.547,0,0,1,.68.04v7.2a3.6,3.6,0,0,0-2.2-.68,3.493,3.493,0,0,0-2.6,1.06A3.644,3.644,0,0,0-38.48-11V0h-7V-20.8ZM-31.04,0V-20.8h7v1.68a6.714,6.714,0,0,1,5.16-2.16A7.258,7.258,0,0,1-13.44-19a7.77,7.77,0,0,1,2.24,5.6V0h-7V-11.68a3.228,3.228,0,0,0-.82-2.26,2.669,2.669,0,0,0-2.06-.9,2.776,2.776,0,0,0-2.12.9,3.183,3.183,0,0,0-.84,2.26V0ZM.6-7.4V-20.8h7V-9.16a3.237,3.237,0,0,0,.84,2.3,2.731,2.731,0,0,0,2.08.9,2.7,2.7,0,0,0,2.08-.92,3.255,3.255,0,0,0,.84-2.28V-20.8h7V0h-7V-1.68A6.714,6.714,0,0,1,8.28.48,7.258,7.258,0,0,1,2.84-1.8,7.77,7.77,0,0,1,.6-7.4ZM29.92,9h-7V-20.8h7v1.16a8.853,8.853,0,0,1,5.16-1.64,8.574,8.574,0,0,1,6.8,3.12,11.286,11.286,0,0,1,2.76,7.76,11.286,11.286,0,0,1-2.76,7.76A8.574,8.574,0,0,1,35.08.48a8.853,8.853,0,0,1-5.16-1.64ZM30-10.36a3.962,3.962,0,0,0,1.08,2.8,3.426,3.426,0,0,0,2.6,1.16,3.426,3.426,0,0,0,2.6-1.16,3.962,3.962,0,0,0,1.08-2.8,4.109,4.109,0,0,0-1.06-2.88,3.408,3.408,0,0,0-2.62-1.16,3.408,3.408,0,0,0-2.62,1.16A4.109,4.109,0,0,0,30-10.36Zm24.96-4.36V-20.8h2.72v-3.96h7v3.96h4.24v6.08H64.68v6.44a1.786,1.786,0,0,0,.56,1.34,1.989,1.989,0,0,0,1.44.54h2.28V0h-3.8a7.719,7.719,0,0,1-5.32-1.92,6.114,6.114,0,0,1-2.16-4.76v-8.04ZM73.6-2.64a10.567,10.567,0,0,1-3.2-7.76,10.352,10.352,0,0,1,3.2-7.72,10.842,10.842,0,0,1,8-3.16,10.842,10.842,0,0,1,8,3.16,10.289,10.289,0,0,1,3.24,7.72A10.5,10.5,0,0,1,89.6-2.64a11,11,0,0,1-8,3.12A11,11,0,0,1,73.6-2.64Zm8-3.76a3.719,3.719,0,0,0,2.78-1.18,3.917,3.917,0,0,0,1.14-2.82,3.917,3.917,0,0,0-1.14-2.82A3.719,3.719,0,0,0,81.6-14.4a3.674,3.674,0,0,0-2.74,1.18,3.917,3.917,0,0,0-1.14,2.82,3.917,3.917,0,0,0,1.14,2.82A3.674,3.674,0,0,0,81.6-6.4ZM-97.98,46.64V42.32a12.478,12.478,0,0,1-6-2.52,9.408,9.408,0,0,1-3.28-4.84l7.44-1.52a2.786,2.786,0,0,0,1.4,1.74,5.241,5.241,0,0,0,2.76.7,4.727,4.727,0,0,0,2.28-.5,1.478,1.478,0,0,0,.92-1.3q0-.8-1.24-1.44a17.978,17.978,0,0,0-3.6-1.32,29.171,29.171,0,0,1-5-2.08,8.232,8.232,0,0,1-2.94-2.78,9.034,9.034,0,0,1-1.14-4.14,8.318,8.318,0,0,1,2.1-5.8,9.339,9.339,0,0,1,5.7-2.88V9.36h4.4v4.4a10.761,10.761,0,0,1,5.06,2.34,7.949,7.949,0,0,1,2.7,4.26l-7.24,1.44q-.16-1.04-1.56-1.48a4.388,4.388,0,0,0-2.68-.04q-1.28.4-1.2,1.44,0,.72,1.24,1.48a15.024,15.024,0,0,0,2,.72l2.68.8a18,18,0,0,1,5.28,2.56,7.012,7.012,0,0,1,2.76,6.08,8.37,8.37,0,0,1-2.28,6,10.2,10.2,0,0,1-6.16,2.96v4.32Zm21.76-24.56L-80.46,24l-2.64-5.96L-74.26,14h5.08V42h-7.04Zm11.16,16.68A3.559,3.559,0,0,1-64,36.14a3.559,3.559,0,0,1,2.62-1.06,3.541,3.541,0,0,1,2.64,1.06,3.6,3.6,0,0,1,1.04,2.62,3.644,3.644,0,0,1-1.04,2.66,3.541,3.541,0,0,1-2.64,1.06A3.559,3.559,0,0,1-64,41.42,3.608,3.608,0,0,1-65.06,38.76Zm22.6-16.2a1.958,1.958,0,0,0-.96-1.66,4.365,4.365,0,0,0-2.52-.66q-2.92,0-3.8,1.96l-6.24-2.4a10.443,10.443,0,0,1,4.12-4.56,11.83,11.83,0,0,1,6.32-1.72,10.815,10.815,0,0,1,7.4,2.56,7.956,7.956,0,0,1,3,6.36A5.8,5.8,0,0,1-37.7,27.4a6.671,6.671,0,0,1,3.36,5.88,8.254,8.254,0,0,1-3.16,6.6,12.031,12.031,0,0,1-7.84,2.6,12.265,12.265,0,0,1-7-1.96,9.429,9.429,0,0,1-3.92-5.2l6.6-2.28A2.891,2.891,0,0,0-48.34,35a4.8,4.8,0,0,0,2.76.76A4.855,4.855,0,0,0-42.76,35a2.263,2.263,0,0,0,1.1-1.92,2.215,2.215,0,0,0-1.1-1.9,4.727,4.727,0,0,0-2.7-.74h-2.16V24.96h1.36a5.042,5.042,0,0,0,2.7-.68A1.992,1.992,0,0,0-42.46,22.56Zm32.08,10.08a9.058,9.058,0,0,1-3.12,7.04,11.208,11.208,0,0,1-7.84,2.8,11.725,11.725,0,0,1-7.08-2.24,11.3,11.3,0,0,1-4.16-5.88l7.04-1.88a4.85,4.85,0,0,0,1.58,2.4,4.007,4.007,0,0,0,2.58.88,3.967,3.967,0,0,0,2.66-.9,2.763,2.763,0,0,0,1.06-2.18,2.833,2.833,0,0,0-1.3-2.38,5.42,5.42,0,0,0-3.26-.94h-8.12L-28.82,14h15.88v6.4H-23.06l-.28,2.56h2.6a10.259,10.259,0,0,1,7.4,2.8A9.182,9.182,0,0,1-10.38,32.64ZM10.3,20.72a8.853,8.853,0,0,1,5.16,1.64V21.2h7V42h-7V40.84a8.853,8.853,0,0,1-5.16,1.64,8.768,8.768,0,0,1-6.84-3.12A11.482,11.482,0,0,1,.74,31.6a11.482,11.482,0,0,1,2.72-7.76A8.768,8.768,0,0,1,10.3,20.72Zm5.08,10.84a3.943,3.943,0,0,0-1.08-2.82,3.453,3.453,0,0,0-2.6-1.14,3.391,3.391,0,0,0-2.58,1.14,3.985,3.985,0,0,0-1.06,2.82,4.129,4.129,0,0,0,1.06,2.86A3.34,3.34,0,0,0,11.7,35.6a3.426,3.426,0,0,0,2.6-1.16A4.065,4.065,0,0,0,15.38,31.56ZM46.14,42H34.46V14H46.14A14.8,14.8,0,0,1,56.7,18.04,13.132,13.132,0,0,1,60.94,28a13.132,13.132,0,0,1-4.24,9.96A14.8,14.8,0,0,1,46.14,42Zm0-21.28H41.78V35.28h4.36a6.827,6.827,0,0,0,5.08-2.08A7.055,7.055,0,0,0,53.3,28a7.007,7.007,0,0,0-2.08-5.16A6.762,6.762,0,0,0,46.14,20.72Zm26.12,0a8.853,8.853,0,0,1,5.16,1.64V21.2h7V42h-7V40.84a9.008,9.008,0,0,1-12-1.48A11.482,11.482,0,0,1,62.7,31.6a11.482,11.482,0,0,1,2.72-7.76A8.768,8.768,0,0,1,72.26,20.72Zm5.08,10.84a3.943,3.943,0,0,0-1.08-2.82,3.453,3.453,0,0,0-2.6-1.14,3.391,3.391,0,0,0-2.58,1.14,3.985,3.985,0,0,0-1.06,2.82,4.129,4.129,0,0,0,1.06,2.86,3.34,3.34,0,0,0,2.58,1.18,3.426,3.426,0,0,0,2.6-1.16A4.065,4.065,0,0,0,77.34,31.56ZM93.5,42.12,85.78,21.2h7.2l3.8,11.52L100.7,21.2h7.2L99.58,43.64a11.566,11.566,0,0,1-4.12,5.62A12.018,12.018,0,0,1,88.66,51h-.64V44.32h.64Q92.3,44.32,93.5,42.12Z" transform="translate(212 130.33)" fill="#fff"/></g></g></svg>