<svg xmlns="http://www.w3.org/2000/svg" xmlns:xlink="http://www.w3.org/1999/xlink" width="425.281" height="216.75" viewBox="0 0 425.281 216.75"><defs><filter id="a" x="111.95" y="40.421" width="200.1" height="54.82" filterUnits="userSpaceOnUse"><feOffset dx="-2" dy="4" input="SourceAlpha"/><feGaussianBlur result="b"/><feFlood flood-color="#ee7026"/><feComposite operator="in" in2="b"/><feComposite in="SourceGraphic"/></filter><filter id="c" x="91.04" y="102.331" width="242.56" height="83" filterUnits="userSpaceOnUse"><feOffset dx="-2" dy="4" input="SourceAlpha"/><feGaussianBlur result="d"/><feFlood flood-color="#ee7026"/><feComposite operator="in" in2="d"/><feComposite in="SourceGraphic"/></filter></defs><g transform="translate(-964 -1085.669)"><g transform="translate(883 996.669)"><path d="M397.868,111.1a25.416,25.416,0,0,0,25.413,25.413v52.82a25.409,25.409,0,0,0-25.413,25.413H27.413A25.416,25.416,0,0,0,2,189.337v-52.82A25.413,25.413,0,1,0,2,85.691V27.413A25.424,25.424,0,0,0,27.413,2H397.868a25.416,25.416,0,0,0,25.413,25.413V85.691A25.409,25.409,0,0,0,397.868,111.1" transform="translate(81 89)" fill="#fecd3b"/><path d="M397.868,111.1a25.416,25.416,0,0,0,25.413,25.413v52.82a25.409,25.409,0,0,0-25.413,25.413H27.413A25.416,25.416,0,0,0,2,189.337v-52.82A25.413,25.413,0,1,0,2,85.691V27.413A25.424,25.424,0,0,0,27.413,2H397.868a25.416,25.416,0,0,0,25.413,25.413V85.691A25.409,25.409,0,0,0,397.868,111.1Z" transform="translate(81 89)" fill="none" stroke="#3d0075" stroke-linecap="round" stroke-linejoin="round" stroke-width="4"/><path d="M43.306,198.113a42.111,42.111,0,0,0-22.05-22.049V149.392a41.849,41.849,0,0,0,0-76.974V40.289a42.113,42.113,0,0,0,22.05-22.05H387.612a42.111,42.111,0,0,0,22.049,22.05V72.418a41.85,41.85,0,0,0,0,76.974v26.672a42.109,42.109,0,0,0-22.049,22.049Z" transform="translate(81 89)" fill="#f8a031"/><line x2="313.845" transform="translate(142.613 107.239)" fill="none" stroke="#3d0075" stroke-linecap="round" stroke-linejoin="round" stroke-width="2" stroke-dasharray="12.308 12.308"/><path d="M49.306,198.113h-6a41.826,41.826,0,0,0-2.753-5.327" transform="translate(81 89)" fill="none" stroke="#3d0075" stroke-linecap="round" stroke-linejoin="round" stroke-width="2"/><path d="M36.653,187.414a42.229,42.229,0,0,0-7.3-6.749" transform="translate(81 89)" fill="none" stroke="#3d0075" stroke-linecap="round" stroke-linejoin="round" stroke-width="2" stroke-dasharray="6.644 6.644"/><path d="M26.583,178.817a41.76,41.76,0,0,0-5.327-2.753v-6" transform="translate(81 89)" fill="none" stroke="#3d0075" stroke-linecap="round" stroke-linejoin="round" stroke-width="2"/><path d="M21.256,155.392v-6a41.618,41.618,0,0,0,5.326-2.753" transform="translate(81 89)" fill="none" stroke="#3d0075" stroke-linecap="round" stroke-linejoin="round" stroke-width="2"/><path d="M35.954,138.841A41.68,41.68,0,0,0,46.67,110.906,41.786,41.786,0,0,0,31.553,78.731" transform="translate(81 89)" fill="none" stroke="#3d0075" stroke-linecap="round" stroke-linejoin="round" stroke-width="2" stroke-dasharray="12.236 12.236"/><path d="M26.582,75.171a41.814,41.814,0,0,0-5.326-2.753v-6" transform="translate(81 89)" fill="none" stroke="#3d0075" stroke-linecap="round" stroke-linejoin="round" stroke-width="2"/><line y1="10.064" transform="translate(102.256 138.645)" fill="none" stroke="#3d0075" stroke-linecap="round" stroke-linejoin="round" stroke-width="2" stroke-dasharray="6.71 6.71"/><path d="M21.256,46.289v-6a41.759,41.759,0,0,0,5.327-2.753" transform="translate(81 89)" fill="none" stroke="#3d0075" stroke-linecap="round" stroke-linejoin="round" stroke-width="2"/><path d="M31.956,33.637a42.235,42.235,0,0,0,6.75-7.3" transform="translate(81 89)" fill="none" stroke="#3d0075" stroke-linecap="round" stroke-linejoin="round" stroke-width="2" stroke-dasharray="6.644 6.644"/><path d="M40.553,23.566a41.76,41.76,0,0,0,2.753-5.327h6" transform="translate(81 89)" fill="none" stroke="#3d0075" stroke-linecap="round" stroke-linejoin="round" stroke-width="2"/><path d="M381.612,18.239h6a41.825,41.825,0,0,0,2.753,5.327" transform="translate(81 89)" fill="none" stroke="#3d0075" stroke-linecap="round" stroke-linejoin="round" stroke-width="2"/><path d="M394.264,28.939a42.264,42.264,0,0,0,7.3,6.75" transform="translate(81 89)" fill="none" stroke="#3d0075" stroke-linecap="round" stroke-linejoin="round" stroke-width="2" stroke-dasharray="6.644 6.644"/><path d="M404.334,37.536a41.756,41.756,0,0,0,5.327,2.753v6" transform="translate(81 89)" fill="none" stroke="#3d0075" stroke-linecap="round" stroke-linejoin="round" stroke-width="2"/><line y2="10.064" transform="translate(490.66 141.999)" fill="none" stroke="#3d0075" stroke-linecap="round" stroke-linejoin="round" stroke-width="2" stroke-dasharray="6.71 6.71"/><path d="M409.66,66.418v6a41.616,41.616,0,0,0-5.326,2.753" transform="translate(81 89)" fill="none" stroke="#3d0075" stroke-linecap="round" stroke-linejoin="round" stroke-width="2"/><path d="M394.963,82.969a41.789,41.789,0,0,0,4.4,60.111" transform="translate(81 89)" fill="none" stroke="#3d0075" stroke-linecap="round" stroke-linejoin="round" stroke-width="2" stroke-dasharray="12.236 12.236"/><path d="M404.334,146.64a41.812,41.812,0,0,0,5.326,2.753v6" transform="translate(81 89)" fill="none" stroke="#3d0075" stroke-linecap="round" stroke-linejoin="round" stroke-width="2"/><path d="M409.66,170.064v6a41.759,41.759,0,0,0-5.327,2.753" transform="translate(81 89)" fill="none" stroke="#3d0075" stroke-linecap="round" stroke-linejoin="round" stroke-width="2"/><path d="M398.961,182.716a42.3,42.3,0,0,0-6.749,7.3" transform="translate(81 89)" fill="none" stroke="#3d0075" stroke-linecap="round" stroke-linejoin="round" stroke-width="2" stroke-dasharray="6.644 6.644"/><path d="M390.365,192.786a41.758,41.758,0,0,0-2.753,5.327h-6" transform="translate(81 89)" fill="none" stroke="#3d0075" stroke-linecap="round" stroke-linejoin="round" stroke-width="2"/><line x1="313.845" transform="translate(136.459 287.113)" fill="none" stroke="#3d0075" stroke-linecap="round" stroke-linejoin="round" stroke-width="2" stroke-dasharray="12.308 12.308"/></g><g transform="matrix(1, 0, 0, 1, 964, 1085.67)" filter="url(#a)"><path d="M-99.05-24.5a24.254,24.254,0,0,1,7.49-18.13,25.661,25.661,0,0,1,18.62-7.28,26.691,26.691,0,0,1,14,3.78,23.943,23.943,0,0,1,9.45,10.29l-10.78,3.99a13.281,13.281,0,0,0-5.18-5.46,14.591,14.591,0,0,0-7.49-1.96A13.754,13.754,0,0,0-83.37-35,14.524,14.524,0,0,0-87.5-24.5,14.96,14.96,0,0,0-83.51-14a13.046,13.046,0,0,0,9.94,4.27,13.856,13.856,0,0,0,7.735-2.31,13.011,13.011,0,0,0,5.075-6.09h-14v-9.45h26.6a16.173,16.173,0,0,1,.21,2.66A25.4,25.4,0,0,1-55.23-6.51Q-62.44.91-73.5.91A25.143,25.143,0,0,1-91.7-6.37,24.34,24.34,0,0,1-99.05-24.5ZM-35.98-6.37A24.34,24.34,0,0,1-43.33-24.5a24.34,24.34,0,0,1,7.35-18.13,25.163,25.163,0,0,1,18.34-7.28A25.163,25.163,0,0,1,.7-42.63,24.224,24.224,0,0,1,8.12-24.5,24.224,24.224,0,0,1,.7-6.37,25.163,25.163,0,0,1-17.64.91,25.163,25.163,0,0,1-35.98-6.37Zm18.34-3.36a13.68,13.68,0,0,0,10.15-4.2A14.749,14.749,0,0,0-3.43-24.5,14.356,14.356,0,0,0-7.49-35a13.426,13.426,0,0,0-10.15-4.27A13.346,13.346,0,0,0-27.72-35a14.356,14.356,0,0,0-4.06,10.5,14.749,14.749,0,0,0,4.06,10.57A13.453,13.453,0,0,0-17.64-9.73ZM13.65-49H24.78v38.78H48.44V0H13.65ZM73.36,0H53.2V-49H73.36a25.475,25.475,0,0,1,18.27,7.07A22.981,22.981,0,0,1,99.05-24.5,22.981,22.981,0,0,1,91.63-7.07,25.475,25.475,0,0,1,73.36,0Zm0-38.78H64.33v28.56h9.03a13.714,13.714,0,0,0,10.08-4.13A13.771,13.771,0,0,0,87.5-24.5a13.8,13.8,0,0,0-4.13-10.15A13.632,13.632,0,0,0,73.36-38.78Z" transform="translate(213 90.33)" fill="#fff"/></g><g transform="matrix(1, 0, 0, 1, 964, 1085.67)" filter="url(#c)"><path d="M-92.12-28h21.16v6.72H-84.8v3.8h11.48v6.72H-84.8v4.04h14.04V0H-92.12Zm32,6.72a8.853,8.853,0,0,1,5.16,1.64V-20.8h7V0h-7V-1.16A8.853,8.853,0,0,1-60.12.48a8.768,8.768,0,0,1-6.84-3.12,11.482,11.482,0,0,1-2.72-7.76,11.482,11.482,0,0,1,2.72-7.76A8.768,8.768,0,0,1-60.12-21.28Zm5.08,10.84a3.943,3.943,0,0,0-1.08-2.82,3.453,3.453,0,0,0-2.6-1.14,3.391,3.391,0,0,0-2.58,1.14,3.985,3.985,0,0,0-1.06,2.82A4.129,4.129,0,0,0-61.3-7.58,3.34,3.34,0,0,0-58.72-6.4a3.426,3.426,0,0,0,2.6-1.16A4.065,4.065,0,0,0-55.04-10.44ZM-38.48-20.8v1.76a6.6,6.6,0,0,1,5.16-2.24,3.547,3.547,0,0,1,.68.04v7.2a3.6,3.6,0,0,0-2.2-.68,3.493,3.493,0,0,0-2.6,1.06A3.644,3.644,0,0,0-38.48-11V0h-7V-20.8ZM-31.04,0V-20.8h7v1.68a6.714,6.714,0,0,1,5.16-2.16A7.258,7.258,0,0,1-13.44-19a7.77,7.77,0,0,1,2.24,5.6V0h-7V-11.68a3.228,3.228,0,0,0-.82-2.26,2.669,2.669,0,0,0-2.06-.9,2.776,2.776,0,0,0-2.12.9,3.183,3.183,0,0,0-.84,2.26V0ZM.6-7.4V-20.8h7V-9.16a3.237,3.237,0,0,0,.84,2.3,2.731,2.731,0,0,0,2.08.9,2.7,2.7,0,0,0,2.08-.92,3.255,3.255,0,0,0,.84-2.28V-20.8h7V0h-7V-1.68A6.714,6.714,0,0,1,8.28.48,7.258,7.258,0,0,1,2.84-1.8,7.77,7.77,0,0,1,.6-7.4ZM29.92,9h-7V-20.8h7v1.16a8.853,8.853,0,0,1,5.16-1.64,8.574,8.574,0,0,1,6.8,3.12,11.286,11.286,0,0,1,2.76,7.76,11.286,11.286,0,0,1-2.76,7.76A8.574,8.574,0,0,1,35.08.48a8.853,8.853,0,0,1-5.16-1.64ZM30-10.36a3.962,3.962,0,0,0,1.08,2.8,3.426,3.426,0,0,0,2.6,1.16,3.426,3.426,0,0,0,2.6-1.16,3.962,3.962,0,0,0,1.08-2.8,4.109,4.109,0,0,0-1.06-2.88,3.408,3.408,0,0,0-2.62-1.16,3.408,3.408,0,0,0-2.62,1.16A4.109,4.109,0,0,0,30-10.36Zm24.96-4.36V-20.8h2.72v-3.96h7v3.96h4.24v6.08H64.68v6.44a1.786,1.786,0,0,0,.56,1.34,1.989,1.989,0,0,0,1.44.54h2.28V0h-3.8a7.719,7.719,0,0,1-5.32-1.92,6.114,6.114,0,0,1-2.16-4.76v-8.04ZM73.6-2.64a10.567,10.567,0,0,1-3.2-7.76,10.352,10.352,0,0,1,3.2-7.72,10.842,10.842,0,0,1,8-3.16,10.842,10.842,0,0,1,8,3.16,10.289,10.289,0,0,1,3.24,7.72A10.5,10.5,0,0,1,89.6-2.64a11,11,0,0,1-8,3.12A11,11,0,0,1,73.6-2.64Zm8-3.76a3.719,3.719,0,0,0,2.78-1.18,3.917,3.917,0,0,0,1.14-2.82,3.917,3.917,0,0,0-1.14-2.82A3.719,3.719,0,0,0,81.6-14.4a3.674,3.674,0,0,0-2.74,1.18,3.917,3.917,0,0,0-1.14,2.82,3.917,3.917,0,0,0,1.14,2.82A3.674,3.674,0,0,0,81.6-6.4ZM-110.68,46.64V42.32a12.478,12.478,0,0,1-6-2.52,9.408,9.408,0,0,1-3.28-4.84l7.44-1.52a2.786,2.786,0,0,0,1.4,1.74,5.241,5.241,0,0,0,2.76.7,4.727,4.727,0,0,0,2.28-.5,1.478,1.478,0,0,0,.92-1.3q0-.8-1.24-1.44a17.979,17.979,0,0,0-3.6-1.32,29.171,29.171,0,0,1-5-2.08,8.232,8.232,0,0,1-2.94-2.78,9.034,9.034,0,0,1-1.14-4.14,8.318,8.318,0,0,1,2.1-5.8,9.339,9.339,0,0,1,5.7-2.88V9.36h4.4v4.4a10.761,10.761,0,0,1,5.06,2.34,7.949,7.949,0,0,1,2.7,4.26l-7.24,1.44q-.16-1.04-1.56-1.48a4.388,4.388,0,0,0-2.68-.04q-1.28.4-1.2,1.44,0,.72,1.24,1.48a15.024,15.024,0,0,0,2,.72l2.68.8a18,18,0,0,1,5.28,2.56,7.012,7.012,0,0,1,2.76,6.08,8.37,8.37,0,0,1-2.28,6,10.2,10.2,0,0,1-6.16,2.96v4.32Zm21.76-24.56L-93.16,24l-2.64-5.96L-86.96,14h5.08V42h-7.04Zm11.36,10.16V23.72a9.5,9.5,0,0,1,3.16-7.28,11.275,11.275,0,0,1,7.96-2.92,11.221,11.221,0,0,1,7.92,2.92,9.529,9.529,0,0,1,3.2,7.28v8.52a9.573,9.573,0,0,1-3.2,7.32,11.221,11.221,0,0,1-7.92,2.92,11.275,11.275,0,0,1-7.96-2.92A9.549,9.549,0,0,1-77.56,32.24Zm11.12-12a4.388,4.388,0,0,0-2.9.98,3.028,3.028,0,0,0-1.18,2.42v8.72a3.028,3.028,0,0,0,1.18,2.42,4.388,4.388,0,0,0,2.9.98,4.447,4.447,0,0,0,2.94-.98,3.028,3.028,0,0,0,1.18-2.42V23.64a3.028,3.028,0,0,0-1.18-2.42A4.447,4.447,0,0,0-66.44,20.24Zm13,18.52a3.559,3.559,0,0,1,1.06-2.62,3.559,3.559,0,0,1,2.62-1.06,3.541,3.541,0,0,1,2.64,1.06,3.6,3.6,0,0,1,1.04,2.62,3.644,3.644,0,0,1-1.04,2.66,3.541,3.541,0,0,1-2.64,1.06,3.559,3.559,0,0,1-2.62-1.06A3.608,3.608,0,0,1-53.44,38.76Zm9.24-6.52V23.72a9.5,9.5,0,0,1,3.16-7.28,11.275,11.275,0,0,1,7.96-2.92,11.221,11.221,0,0,1,7.92,2.92,9.529,9.529,0,0,1,3.2,7.28v8.52a9.573,9.573,0,0,1-3.2,7.32,11.221,11.221,0,0,1-7.92,2.92,11.275,11.275,0,0,1-7.96-2.92A9.549,9.549,0,0,1-44.2,32.24Zm11.12-12a4.388,4.388,0,0,0-2.9.98,3.028,3.028,0,0,0-1.18,2.42v8.72a3.028,3.028,0,0,0,1.18,2.42,4.388,4.388,0,0,0,2.9.98,4.447,4.447,0,0,0,2.94-.98,3.028,3.028,0,0,0,1.18-2.42V23.64a3.028,3.028,0,0,0-1.18-2.42A4.447,4.447,0,0,0-33.08,20.24Zm13.2,12V23.72a9.5,9.5,0,0,1,3.16-7.28,11.275,11.275,0,0,1,7.96-2.92A11.221,11.221,0,0,1-.84,16.44a9.529,9.529,0,0,1,3.2,7.28v8.52a9.573,9.573,0,0,1-3.2,7.32,11.221,11.221,0,0,1-7.92,2.92,11.275,11.275,0,0,1-7.96-2.92A9.549,9.549,0,0,1-19.88,32.24Zm11.12-12a4.388,4.388,0,0,0-2.9.98,3.028,3.028,0,0,0-1.18,2.42v8.72a3.028,3.028,0,0,0,1.18,2.42,4.388,4.388,0,0,0,2.9.98,4.447,4.447,0,0,0,2.94-.98,3.028,3.028,0,0,0,1.18-2.42V23.64a3.028,3.028,0,0,0-1.18-2.42A4.447,4.447,0,0,0-8.76,20.24ZM23,20.72a8.853,8.853,0,0,1,5.16,1.64V21.2h7V42h-7V40.84a9.008,9.008,0,0,1-12-1.48,11.482,11.482,0,0,1-2.72-7.76,11.482,11.482,0,0,1,2.72-7.76A8.768,8.768,0,0,1,23,20.72Zm5.08,10.84A3.943,3.943,0,0,0,27,28.74a3.453,3.453,0,0,0-2.6-1.14,3.391,3.391,0,0,0-2.58,1.14,3.985,3.985,0,0,0-1.06,2.82,4.129,4.129,0,0,0,1.06,2.86A3.34,3.34,0,0,0,24.4,35.6,3.426,3.426,0,0,0,27,34.44,4.065,4.065,0,0,0,28.08,31.56ZM58.84,42H47.16V14H58.84A14.8,14.8,0,0,1,69.4,18.04,13.132,13.132,0,0,1,73.64,28a13.132,13.132,0,0,1-4.24,9.96A14.8,14.8,0,0,1,58.84,42Zm0-21.28H54.48V35.28h4.36a6.827,6.827,0,0,0,5.08-2.08A7.055,7.055,0,0,0,66,28a7.007,7.007,0,0,0-2.08-5.16A6.762,6.762,0,0,0,58.84,20.72Zm26.12,0a8.853,8.853,0,0,1,5.16,1.64V21.2h7V42h-7V40.84a9.008,9.008,0,0,1-12-1.48A11.482,11.482,0,0,1,75.4,31.6a11.482,11.482,0,0,1,2.72-7.76A8.768,8.768,0,0,1,84.96,20.72Zm5.08,10.84a3.943,3.943,0,0,0-1.08-2.82,3.453,3.453,0,0,0-2.6-1.14,3.391,3.391,0,0,0-2.58,1.14,3.985,3.985,0,0,0-1.06,2.82,4.129,4.129,0,0,0,1.06,2.86,3.34,3.34,0,0,0,2.58,1.18,3.426,3.426,0,0,0,2.6-1.16A4.065,4.065,0,0,0,90.04,31.56ZM106.2,42.12,98.48,21.2h7.2l3.8,11.52L113.4,21.2h7.2l-8.32,22.44a11.566,11.566,0,0,1-4.12,5.62,12.018,12.018,0,0,1-6.8,1.74h-.64V44.32h.64Q105,44.32,106.2,42.12Z" transform="translate(213 130.33)" fill="#fff"/></g></g></svg>