<svg xmlns="http://www.w3.org/2000/svg" xmlns:xlink="http://www.w3.org/1999/xlink" width="425.281" height="216.75" viewBox="0 0 425.281 216.75"><defs><filter id="a" x="96.55" y="40.421" width="231.53" height="54.82" filterUnits="userSpaceOnUse"><feOffset dx="-2" dy="4" input="SourceAlpha"/><feGaussianBlur result="b"/><feFlood flood-color="#646993"/><feComposite operator="in" in2="b"/><feComposite in="SourceGraphic"/></filter><filter id="c" x="100.5" y="102.331" width="223.64" height="83" filterUnits="userSpaceOnUse"><feOffset dx="-2" dy="4" input="SourceAlpha"/><feGaussianBlur result="d"/><feFlood flood-color="#646993"/><feComposite operator="in" in2="d"/><feComposite in="SourceGraphic"/></filter></defs><g transform="translate(-523 -1085.669)"><g transform="translate(442 756.335)"><path d="M397.868,351.438a25.416,25.416,0,0,0,25.413,25.413v52.82a25.409,25.409,0,0,0-25.413,25.413H27.413A25.416,25.416,0,0,0,2,429.671v-52.82a25.413,25.413,0,0,0,0-50.826V267.747a25.424,25.424,0,0,0,25.413-25.413H397.868a25.416,25.416,0,0,0,25.413,25.413v58.278a25.409,25.409,0,0,0-25.413,25.413" transform="translate(81 89)" fill="#bdc5e0"/><path d="M397.868,351.438a25.416,25.416,0,0,0,25.413,25.413v52.82a25.409,25.409,0,0,0-25.413,25.413H27.413A25.416,25.416,0,0,0,2,429.671v-52.82a25.413,25.413,0,0,0,0-50.826V267.747a25.424,25.424,0,0,0,25.413-25.413H397.868a25.416,25.416,0,0,0,25.413,25.413v58.278A25.409,25.409,0,0,0,397.868,351.438Z" transform="translate(81 89)" fill="none" stroke="#3d0075" stroke-linecap="round" stroke-linejoin="round" stroke-width="4"/><path d="M43.306,438.448A42.111,42.111,0,0,0,21.256,416.4V389.727a41.849,41.849,0,0,0,0-76.974V280.624a42.113,42.113,0,0,0,22.05-22.05H387.612a42.111,42.111,0,0,0,22.049,22.05v32.129a41.85,41.85,0,0,0,0,76.974V416.4a42.109,42.109,0,0,0-22.049,22.049Z" transform="translate(81 89)" fill="#8a92b6"/><path d="M43.306,438.448A42.111,42.111,0,0,0,21.256,416.4V389.727a41.849,41.849,0,0,0,0-76.974V280.624a42.113,42.113,0,0,0,22.05-22.05H387.612a42.111,42.111,0,0,0,22.049,22.05v32.129a41.85,41.85,0,0,0,0,76.974V416.4a42.109,42.109,0,0,0-22.049,22.049Z" transform="translate(81 89)" fill="none" stroke="#3d0075" stroke-linecap="round" stroke-linejoin="round" stroke-width="2" stroke-dasharray="12 12"/></g><g transform="matrix(1, 0, 0, 1, 523, 1085.67)" filter="url(#a)"><path d="M-78.54-38.43l-10.99,2.59a4.813,4.813,0,0,0-2.275-2.765A8,8,0,0,0-96.04-39.69a7.412,7.412,0,0,0-4.2,1.12,3.343,3.343,0,0,0-1.68,2.87q0,2.24,4.06,3.92,1.47.56,7.35,2.31a31.363,31.363,0,0,1,7.35,3.08q6.37,3.36,6.72,11.62A14.114,14.114,0,0,1-81.55-3.36Q-86.66.91-94.78.91a23,23,0,0,1-12.81-3.5,15.789,15.789,0,0,1-6.86-9.03l11.13-2.66a5.863,5.863,0,0,0,2.94,3.57,10.844,10.844,0,0,0,5.6,1.4,9.554,9.554,0,0,0,5.11-1.3,3.735,3.735,0,0,0,2.1-3.185,3.058,3.058,0,0,0-1.26-2.38,18.947,18.947,0,0,0-6.09-2.87l-.7-.21q-3.57-1.05-3.71-1.12l-3.43-1.26q-2.52-1.12-3.36-1.61-3.99-2.87-4.97-4.48a13.7,13.7,0,0,1-1.96-7.14,13.857,13.857,0,0,1,4.62-10.85q4.69-4.2,12.18-4.2a20.1,20.1,0,0,1,11.48,3.29A14.431,14.431,0,0,1-78.54-38.43ZM-59.85,0H-70.98V-49h11.13Zm6.58-49h11.13v38.78h23.66V0H-53.27ZM6.51,0H-2.66l-20.3-49h11.62L1.96-15.89l.63-1.75L15.19-49H26.74ZM30.52-49H67.13v10.22H41.65v8.96H63.07V-19.6H41.65v9.38H67.48V0H30.52Zm42.14,0H95.62a17.79,17.79,0,0,1,12.6,4.76,15.214,15.214,0,0,1,5.11,11.69,15.619,15.619,0,0,1-2.38,8.435,16.232,16.232,0,0,1-6.44,5.915L115.08,0H102.76L93.31-16.1H83.79V0H72.66ZM95.62-38.78H83.79v12.46H95.62a5.918,5.918,0,0,0,4.41-1.785,6.1,6.1,0,0,0,1.75-4.445A6.1,6.1,0,0,0,100.03-37,5.918,5.918,0,0,0,95.62-38.78Z" transform="translate(213 90.33)" fill="#fff"/></g><g transform="matrix(1, 0, 0, 1, 523, 1085.67)" filter="url(#c)"><path d="M-92.12-28h21.16v6.72H-84.8v3.8h11.48v6.72H-84.8v4.04h14.04V0H-92.12Zm32,6.72a8.853,8.853,0,0,1,5.16,1.64V-20.8h7V0h-7V-1.16A8.853,8.853,0,0,1-60.12.48a8.768,8.768,0,0,1-6.84-3.12,11.482,11.482,0,0,1-2.72-7.76,11.482,11.482,0,0,1,2.72-7.76A8.768,8.768,0,0,1-60.12-21.28Zm5.08,10.84a3.943,3.943,0,0,0-1.08-2.82,3.453,3.453,0,0,0-2.6-1.14,3.391,3.391,0,0,0-2.58,1.14,3.985,3.985,0,0,0-1.06,2.82A4.129,4.129,0,0,0-61.3-7.58,3.34,3.34,0,0,0-58.72-6.4a3.426,3.426,0,0,0,2.6-1.16A4.065,4.065,0,0,0-55.04-10.44ZM-38.48-20.8v1.76a6.6,6.6,0,0,1,5.16-2.24,3.547,3.547,0,0,1,.68.04v7.2a3.6,3.6,0,0,0-2.2-.68,3.493,3.493,0,0,0-2.6,1.06A3.644,3.644,0,0,0-38.48-11V0h-7V-20.8ZM-31.04,0V-20.8h7v1.68a6.714,6.714,0,0,1,5.16-2.16A7.258,7.258,0,0,1-13.44-19a7.77,7.77,0,0,1,2.24,5.6V0h-7V-11.68a3.228,3.228,0,0,0-.82-2.26,2.669,2.669,0,0,0-2.06-.9,2.776,2.776,0,0,0-2.12.9,3.183,3.183,0,0,0-.84,2.26V0ZM.6-7.4V-20.8h7V-9.16a3.237,3.237,0,0,0,.84,2.3,2.731,2.731,0,0,0,2.08.9,2.7,2.7,0,0,0,2.08-.92,3.255,3.255,0,0,0,.84-2.28V-20.8h7V0h-7V-1.68A6.714,6.714,0,0,1,8.28.48,7.258,7.258,0,0,1,2.84-1.8,7.77,7.77,0,0,1,.6-7.4ZM29.92,9h-7V-20.8h7v1.16a8.853,8.853,0,0,1,5.16-1.64,8.574,8.574,0,0,1,6.8,3.12,11.286,11.286,0,0,1,2.76,7.76,11.286,11.286,0,0,1-2.76,7.76A8.574,8.574,0,0,1,35.08.48a8.853,8.853,0,0,1-5.16-1.64ZM30-10.36a3.962,3.962,0,0,0,1.08,2.8,3.426,3.426,0,0,0,2.6,1.16,3.426,3.426,0,0,0,2.6-1.16,3.962,3.962,0,0,0,1.08-2.8,4.109,4.109,0,0,0-1.06-2.88,3.408,3.408,0,0,0-2.62-1.16,3.408,3.408,0,0,0-2.62,1.16A4.109,4.109,0,0,0,30-10.36Zm24.96-4.36V-20.8h2.72v-3.96h7v3.96h4.24v6.08H64.68v6.44a1.786,1.786,0,0,0,.56,1.34,1.989,1.989,0,0,0,1.44.54h2.28V0h-3.8a7.719,7.719,0,0,1-5.32-1.92,6.114,6.114,0,0,1-2.16-4.76v-8.04ZM73.6-2.64a10.567,10.567,0,0,1-3.2-7.76,10.352,10.352,0,0,1,3.2-7.72,10.842,10.842,0,0,1,8-3.16,10.842,10.842,0,0,1,8,3.16,10.289,10.289,0,0,1,3.24,7.72A10.5,10.5,0,0,1,89.6-2.64a11,11,0,0,1-8,3.12A11,11,0,0,1,73.6-2.64Zm8-3.76a3.719,3.719,0,0,0,2.78-1.18,3.917,3.917,0,0,0,1.14-2.82,3.917,3.917,0,0,0-1.14-2.82A3.719,3.719,0,0,0,81.6-14.4a3.674,3.674,0,0,0-2.74,1.18,3.917,3.917,0,0,0-1.14,2.82,3.917,3.917,0,0,0,1.14,2.82A3.674,3.674,0,0,0,81.6-6.4ZM-101.22,46.64V42.32a12.478,12.478,0,0,1-6-2.52,9.408,9.408,0,0,1-3.28-4.84l7.44-1.52a2.786,2.786,0,0,0,1.4,1.74,5.241,5.241,0,0,0,2.76.7,4.727,4.727,0,0,0,2.28-.5,1.478,1.478,0,0,0,.92-1.3q0-.8-1.24-1.44a17.978,17.978,0,0,0-3.6-1.32,29.171,29.171,0,0,1-5-2.08,8.232,8.232,0,0,1-2.94-2.78,9.034,9.034,0,0,1-1.14-4.14,8.318,8.318,0,0,1,2.1-5.8,9.339,9.339,0,0,1,5.7-2.88V9.36h4.4v4.4a10.761,10.761,0,0,1,5.06,2.34,7.949,7.949,0,0,1,2.7,4.26L-96.9,21.8q-.16-1.04-1.56-1.48a4.388,4.388,0,0,0-2.68-.04q-1.28.4-1.2,1.44,0,.72,1.24,1.48a15.024,15.024,0,0,0,2,.72l2.68.8a18,18,0,0,1,5.28,2.56,7.012,7.012,0,0,1,2.76,6.08,8.37,8.37,0,0,1-2.28,6,10.2,10.2,0,0,1-6.16,2.96v4.32Zm36.24-27.2-6.32,3a4.023,4.023,0,0,0-3.92-2.2,4.553,4.553,0,0,0-2.92.92A2.77,2.77,0,0,0-79.3,23.4v1.56a7.71,7.71,0,0,1,4.44-1.2,10.545,10.545,0,0,1,7.28,2.72,8.668,8.668,0,0,1,3,6.68,8.451,8.451,0,0,1-3.12,6.68,11.35,11.35,0,0,1-7.72,2.64,11.454,11.454,0,0,1-7.8-2.68,8.41,8.41,0,0,1-3.12-6.64V23.52a9.094,9.094,0,0,1,3.16-7.12,11.312,11.312,0,0,1,7.92-2.88,12.333,12.333,0,0,1,6.24,1.58A9.549,9.549,0,0,1-64.98,19.44ZM-75.42,30.48a4.2,4.2,0,0,0-2.58.76,2.272,2.272,0,0,0-1.02,1.88A2.272,2.272,0,0,0-78,35a4.2,4.2,0,0,0,2.58.76,4.122,4.122,0,0,0,2.52-.74,2.233,2.233,0,0,0,1-1.86,2.319,2.319,0,0,0-1-1.92A4.046,4.046,0,0,0-75.42,30.48Zm12.52,8.28a3.559,3.559,0,0,1,1.06-2.62,3.559,3.559,0,0,1,2.62-1.06,3.541,3.541,0,0,1,2.64,1.06,3.6,3.6,0,0,1,1.04,2.62,3.644,3.644,0,0,1-1.04,2.66,3.541,3.541,0,0,1-2.64,1.06,3.559,3.559,0,0,1-2.62-1.06A3.608,3.608,0,0,1-62.9,38.76Zm9.24-6.52V23.72a9.5,9.5,0,0,1,3.16-7.28,11.275,11.275,0,0,1,7.96-2.92,11.221,11.221,0,0,1,7.92,2.92,9.529,9.529,0,0,1,3.2,7.28v8.52a9.573,9.573,0,0,1-3.2,7.32,11.221,11.221,0,0,1-7.92,2.92,11.275,11.275,0,0,1-7.96-2.92A9.549,9.549,0,0,1-53.66,32.24Zm11.12-12a4.388,4.388,0,0,0-2.9.98,3.028,3.028,0,0,0-1.18,2.42v8.72a3.028,3.028,0,0,0,1.18,2.42,4.388,4.388,0,0,0,2.9.98,4.447,4.447,0,0,0,2.94-.98,3.028,3.028,0,0,0,1.18-2.42V23.64a3.028,3.028,0,0,0-1.18-2.42A4.447,4.447,0,0,0-42.54,20.24Zm13.2,12V23.72a9.5,9.5,0,0,1,3.16-7.28,11.275,11.275,0,0,1,7.96-2.92,11.221,11.221,0,0,1,7.92,2.92,9.529,9.529,0,0,1,3.2,7.28v8.52a9.573,9.573,0,0,1-3.2,7.32,11.221,11.221,0,0,1-7.92,2.92,11.275,11.275,0,0,1-7.96-2.92A9.549,9.549,0,0,1-29.34,32.24Zm11.12-12a4.388,4.388,0,0,0-2.9.98,3.028,3.028,0,0,0-1.18,2.42v8.72a3.028,3.028,0,0,0,1.18,2.42,4.388,4.388,0,0,0,2.9.98,4.447,4.447,0,0,0,2.94-.98,3.028,3.028,0,0,0,1.18-2.42V23.64a3.028,3.028,0,0,0-1.18-2.42A4.447,4.447,0,0,0-18.22,20.24Zm31.76.48a8.853,8.853,0,0,1,5.16,1.64V21.2h7V42h-7V40.84a8.853,8.853,0,0,1-5.16,1.64A8.768,8.768,0,0,1,6.7,39.36,11.482,11.482,0,0,1,3.98,31.6,11.482,11.482,0,0,1,6.7,23.84,8.768,8.768,0,0,1,13.54,20.72Zm5.08,10.84a3.943,3.943,0,0,0-1.08-2.82,3.453,3.453,0,0,0-2.6-1.14,3.391,3.391,0,0,0-2.58,1.14,3.985,3.985,0,0,0-1.06,2.82,4.129,4.129,0,0,0,1.06,2.86,3.34,3.34,0,0,0,2.58,1.18,3.426,3.426,0,0,0,2.6-1.16A4.065,4.065,0,0,0,18.62,31.56ZM49.38,42H37.7V14H49.38a14.8,14.8,0,0,1,10.56,4.04A13.132,13.132,0,0,1,64.18,28a13.132,13.132,0,0,1-4.24,9.96A14.8,14.8,0,0,1,49.38,42Zm0-21.28H45.02V35.28h4.36a6.827,6.827,0,0,0,5.08-2.08A7.055,7.055,0,0,0,56.54,28a7.007,7.007,0,0,0-2.08-5.16A6.762,6.762,0,0,0,49.38,20.72Zm26.12,0a8.853,8.853,0,0,1,5.16,1.64V21.2h7V42h-7V40.84a9.008,9.008,0,0,1-12-1.48,11.482,11.482,0,0,1-2.72-7.76,11.482,11.482,0,0,1,2.72-7.76A8.768,8.768,0,0,1,75.5,20.72Zm5.08,10.84a3.943,3.943,0,0,0-1.08-2.82,3.453,3.453,0,0,0-2.6-1.14,3.391,3.391,0,0,0-2.58,1.14,3.985,3.985,0,0,0-1.06,2.82,4.129,4.129,0,0,0,1.06,2.86A3.34,3.34,0,0,0,76.9,35.6a3.426,3.426,0,0,0,2.6-1.16A4.065,4.065,0,0,0,80.58,31.56ZM96.74,42.12,89.02,21.2h7.2l3.8,11.52,3.92-11.52h7.2l-8.32,22.44a11.566,11.566,0,0,1-4.12,5.62A12.018,12.018,0,0,1,91.9,51h-.64V44.32h.64Q95.54,44.32,96.74,42.12Z" transform="translate(213 130.33)" fill="#fff"/></g></g></svg>