<svg width="41" height="27" viewBox="0 0 41 27" fill="none" xmlns="http://www.w3.org/2000/svg" style={{fill:'currentColor',width: '1em',height: '1em', display: 'inline-block'}}><path d="M34.5285 2.70059C31.9786 1.71536 29.2453 0.987143 26.3871 0.57306C26.3616 0.568873 26.3352 0.571571 26.3117 0.580781C26.2881 0.589991 26.2684 0.605256 26.2554 0.624464C25.9054 1.15135 25.5154 1.83815 25.2421 2.38075C22.2107 1.9927 19.1288 1.9927 16.0973 2.38075C15.7929 1.77941 15.4496 1.19308 15.069 0.624464C15.0561 0.60502 15.0366 0.589409 15.0131 0.579714C14.9896 0.570019 14.9632 0.566702 14.9374 0.570204C12.0808 0.984287 9.34754 1.7125 6.79595 2.69916C6.774 2.70705 6.75539 2.7205 6.74262 2.73771C1.5561 9.27022 0.134475 15.6414 0.832788 21.9326C0.834732 21.948 0.840314 21.9629 0.849196 21.9764C0.858078 21.9899 0.870074 22.0017 0.884454 22.0111C3.91169 23.8994 7.28816 25.3378 10.8725 26.2662C10.8975 26.2728 10.9242 26.2727 10.9492 26.2661C10.9742 26.2595 10.9962 26.2466 11.0125 26.2291C11.7825 25.3438 12.4691 24.4085 13.0558 23.4261C13.0908 23.369 13.0574 23.3005 12.9874 23.2776C11.9108 22.9303 10.8676 22.5111 9.86753 22.024C9.84956 22.0152 9.83441 22.0027 9.82346 21.9877C9.8125 21.9726 9.80607 21.9555 9.80475 21.9378C9.80343 21.9201 9.80725 21.9024 9.81588 21.8863C9.82451 21.8702 9.83768 21.8562 9.85419 21.8455C10.0642 21.7127 10.2742 21.5742 10.4742 21.4357C10.4922 21.4232 10.5139 21.4153 10.5368 21.4128C10.5598 21.4103 10.5831 21.4132 10.6042 21.4214C17.149 23.9402 24.2371 23.9402 30.7053 21.4214C30.7264 21.4128 30.75 21.4094 30.7732 21.4117C30.7965 21.4139 30.8186 21.4218 30.8369 21.4343C31.0369 21.5742 31.2452 21.7127 31.4569 21.8455C31.4736 21.8559 31.487 21.8698 31.4959 21.8858C31.5048 21.9017 31.5089 21.9193 31.5079 21.937C31.5069 21.9547 31.5008 21.9719 31.4902 21.9871C31.4795 22.0023 31.4647 22.0149 31.4469 22.024C30.4503 22.5152 29.4136 22.9307 28.3253 23.2762C28.3086 23.2814 28.2934 23.2896 28.2807 23.3002C28.2679 23.3109 28.258 23.3237 28.2515 23.3379C28.2451 23.3521 28.2422 23.3673 28.2432 23.3825C28.2441 23.3977 28.2488 23.4126 28.257 23.4261C28.857 24.4071 29.5436 25.3409 30.2986 26.2276C30.3143 26.2458 30.3362 26.2594 30.3612 26.2666C30.3863 26.2737 30.4133 26.2741 30.4386 26.2676C34.0291 25.3418 37.4111 23.9027 40.4416 22.0111C40.4564 22.0023 40.4688 21.9908 40.478 21.9775C40.4872 21.9642 40.493 21.9494 40.495 21.934C41.3283 14.6604 39.0983 8.34068 34.5801 2.74057C34.5691 2.72237 34.5507 2.70818 34.5285 2.70059ZM14.0341 18.1016C12.0641 18.1016 10.4392 16.5752 10.4392 14.7033C10.4392 12.8299 12.0325 11.3049 14.0341 11.3049C16.0507 11.3049 17.6606 12.8428 17.629 14.7033C17.629 16.5766 16.0357 18.1016 14.0341 18.1016ZM27.3254 18.1016C25.3537 18.1016 23.7305 16.5752 23.7305 14.7033C23.7305 12.8299 25.3221 11.3049 27.3254 11.3049C29.342 11.3049 30.9519 12.8428 30.9203 14.7033C30.9203 16.5766 29.3436 18.1016 27.3254 18.1016Z" /></svg>